<?xml version="1.0" encoding="UTF-8" standalone="no"?>
<svg xmlns="http://www.w3.org/2000/svg" viewBox="0 0 24 24"><title>Getpocket</title><g id="Getpocket"><g id="_Group_" data-name="&lt;Group&gt;"><path id="_Rectangle_" data-name="&lt;Rectangle&gt;" d="M5.15,1.5h13.7A3.65,3.65,0,0,1,22.5,5.15V12A10.5,10.5,0,0,1,12,22.5h0A10.5,10.5,0,0,1,1.5,12V5.15A3.65,3.65,0,0,1,5.15,1.5Z" style="fill:none;stroke:#303c42;stroke-linecap:round;stroke-linejoin:round"/><path id="_Path_" data-name="&lt;Path&gt;" d="M12,16a2.66,2.66,0,0,1-1.9-.79L4.94,10.06A1.5,1.5,0,1,1,7.06,7.94L12,12.88l4.94-4.94a1.5,1.5,0,0,1,2.12,2.12L13.9,15.22A2.66,2.66,0,0,1,12,16Z" style="fill:none;stroke:#303c42;stroke-linecap:round;stroke-linejoin:round"/></g></g>
	<metadata>
		<rdf:RDF xmlns:rdf="http://www.w3.org/1999/02/22-rdf-syntax-ns#" xmlns:rdfs="http://www.w3.org/2000/01/rdf-schema#" xmlns:dc="http://purl.org/dc/elements/1.1/">
			<rdf:Description about="https://iconscout.com/legal#licenses" dc:title="social; media; social media; logo; getpocket" dc:description="social; media; social media; logo; getpocket" dc:publisher="Iconscout" dc:date="2017-02-21" dc:format="image/svg+xml" dc:language="en">
				<dc:creator>
					<rdf:Bag>
						<rdf:li>Alpár - Etele Méder</rdf:li>
					</rdf:Bag>
				</dc:creator>
			</rdf:Description>
		</rdf:RDF>
    </metadata></svg>
