<?xml version="1.0" encoding="UTF-8"?>
<!-- Generator: Adobe Illustrator 19.1.1, SVG Export Plug-In . SVG Version: 6.00 Build 0)  -->
<svg version="1.1" xmlns="http://www.w3.org/2000/svg" xmlns:xlink="http://www.w3.org/1999/xlink" width="20px" x="0px" y="0px" viewBox="0 0 80 80" style="enable-background:new 0 0 80 80;" xml:space="preserve">
<style type="text/css">
	.st0{fill:url(#SVGID_1_);}
	.st1{fill:#0FE2B6;}
	.st2{fill:#13DCC8;}
	.st3{fill:#13D3D8;}
</style>
<g id="Layer_4_xA0_Image_1_">
	<linearGradient id="SVGID_1_" gradientUnits="userSpaceOnUse" x1="-6.5497" y1="51.8043" x2="70.7537" y2="7.1732">
		<stop offset="0" style="stop-color:#04EC47"/>
		<stop offset="1" style="stop-color:#00BDF2"/>
	</linearGradient>
	<path class="st0" d="M80,31.6C80,14.2,65.8,0,48.4,0H9.1v9h39.3c12.5,0,22.6,10.1,22.6,22.6S60.8,54.2,48.4,54.2l0,0H34.6   L21.8,67.5V54.2h-2l0,0H9.1V0H0v63.2h12.7V80h9l16.5-16.8h10.9v0C66.2,62.8,80,48.8,80,31.6z"/>
	<circle class="st1" cx="25.3" cy="31.6" r="4.5"/>
	<circle class="st2" cx="40" cy="31.6" r="4.5"/>
	<circle class="st3" cx="54.6" cy="31.6" r="4.5"/>
</g>
<g id="Layer_3_xA0_Image_1_">
</g>
</svg>